<svg width="1024" height="1024" viewBox="0 0 1024 1024" fill="none" xmlns="http://www.w3.org/2000/svg">
<path d="M524.912 1016.53C438.485 1016.53 359.414 995.374 287.698 953.064C215.982 910.755 159.437 851.889 118.062 776.468C76.6873 701.047 56 615.049 56 518.473C56 421.897 76.6873 335.898 118.062 260.477C159.437 185.056 215.982 126.191 287.698 83.8811C359.414 41.5716 438.026 20.4169 523.533 20.4169C563.069 20.4169 602.145 25.9355 640.761 36.9727C678.458 48.01 711.558 64.106 740.06 85.2607V8H964.862V441.212H731.786V426.036C726.269 392.924 714.316 363.491 695.927 337.738C677.539 311.984 654.553 291.749 626.97 277.033C599.387 261.397 568.586 253.579 534.566 253.579C491.353 253.579 452.737 265.076 418.717 288.07C385.618 311.064 359.414 342.796 340.106 383.266C320.798 422.816 311.144 467.885 311.144 518.473C311.144 569.06 320.798 614.589 340.106 655.059C359.414 694.609 385.618 725.881 418.717 748.875C452.737 771.869 491.353 783.367 534.566 783.367C568.586 783.367 599.846 776.008 628.349 761.292C657.771 745.656 681.676 724.961 700.065 699.208C718.454 673.454 730.406 644.021 735.923 610.91V592.974H969V1016.53H744.198V951.685C715.695 972.839 682.136 988.935 643.52 999.973C603.984 1011.01 564.448 1016.53 524.912 1016.53Z" fill="#003063"/>
<path d="M228.264 635.271H392.208V641.205C397.475 664.94 408.998 686.368 426.775 705.488C444.552 723.948 465.95 738.783 490.969 749.991C516.647 760.54 542.984 765.814 569.979 765.814C587.756 765.814 603.228 763.836 616.396 759.881C630.223 755.925 641.087 749.661 648.988 741.09C656.889 732.519 660.839 721.97 660.839 709.443C660.839 696.257 655.243 685.379 644.05 676.808C632.857 668.237 618.043 660.654 599.607 654.061C581.172 647.468 553.848 639.227 517.635 629.337C512.368 628.019 507.101 626.7 501.833 625.381C496.566 623.404 491.299 621.755 486.031 620.437C485.373 620.437 484.715 620.437 484.056 620.437C484.056 619.777 483.727 619.448 483.069 619.448C438.297 606.921 398.463 593.075 363.567 577.911C329.33 562.088 299.043 538.682 272.707 507.695C247.029 476.707 234.19 436.819 234.19 388.03C234.19 345.175 244.724 308.913 265.793 279.244C287.521 249.575 316.491 227.488 352.704 212.984C388.916 198.479 428.75 191.226 472.205 191.226C495.908 191.226 518.293 193.534 539.363 198.149C561.09 202.105 581.501 208.039 600.595 215.95C611.788 221.225 622.651 227.159 633.186 233.752C643.72 239.686 653.267 246.608 661.827 254.52V199.138H820.833V460.225H664.79V455.28C659.522 436.16 648.329 418.029 631.211 400.887C614.75 383.085 594.34 368.581 569.979 357.372C546.276 346.164 520.269 340.56 491.957 340.56C468.254 340.56 449.161 345.834 434.676 356.383C420.19 366.273 412.948 381.107 412.948 400.887C412.948 414.073 418.215 425.281 428.75 434.511C439.943 443.082 453.769 450.335 470.23 456.269C486.69 462.202 511.051 469.125 543.313 477.037C547.922 478.356 552.86 479.674 558.127 480.993C563.395 481.652 568.662 482.971 573.929 484.949L591.706 489.893C644.379 504.398 687.176 518.573 720.096 532.419C753.016 546.264 781.328 567.362 805.031 595.713C828.733 624.063 840.585 661.643 840.585 708.454C840.585 753.947 829.063 792.187 806.018 823.174C783.632 853.502 753.346 876.249 715.158 891.413C677.629 905.917 636.149 913.17 590.719 913.17C564.382 913.17 539.363 910.203 515.66 904.269C492.616 898.995 470.888 891.413 450.477 881.523C438.626 875.589 427.104 868.996 415.911 861.744C405.376 853.832 395.829 845.261 387.27 836.031V901.302H228.264V635.271Z" fill="#32ADE6"/>
</svg>
